<?xml version="1.0" standalone="no"?>
<!DOCTYPE svg PUBLIC "-//W3C//DTD SVG 20010904//EN"
 "http://www.w3.org/TR/2001/REC-SVG-20010904/DTD/svg10.dtd">
<svg version="1.0" xmlns="http://www.w3.org/2000/svg"
 width="512.000000pt" height="512.000000pt" viewBox="0 0 512.000000 512.000000"
 preserveAspectRatio="xMidYMid meet">
<metadata>
Created by potrace 1.14, written by Peter Selinger 2001-2017
</metadata>
<g transform="translate(0.000000,512.000000) scale(0.100000,-0.100000)"
fill="#000000" stroke="none">
<path d="M2090 4950 c-25 -5 -61 -11 -82 -15 -63 -11 -182 -52 -259 -90 -114
-56 -206 -122 -299 -215 -158 -158 -252 -330 -307 -565 -18 -75 -24 -299 -11
-390 22 -151 85 -312 175 -454 l35 -54 -296 -296 -296 -295 -127 126 c-100 99
-137 128 -168 137 -95 25 -183 -31 -200 -129 -11 -63 11 -98 143 -232 l126
-128 -169 -170 c-94 -93 -176 -185 -184 -202 -27 -66 -2 -144 63 -192 35 -27
129 -29 166 -3 14 9 98 90 188 179 l162 163 128 -127 c156 -156 194 -173 282
-128 49 25 79 67 86 122 9 65 -11 95 -149 235 l-121 123 294 295 c162 162 298
295 302 295 4 0 13 -6 20 -13 19 -18 103 -67 172 -100 159 -75 313 -107 501
-102 130 3 150 5 235 26 326 80 597 297 745 598 81 163 117 332 110 521 -4
131 -6 144 -32 250 -33 133 -116 303 -200 410 -91 115 -268 260 -383 312 -175
81 -293 109 -470 113 -74 2 -155 -1 -180 -5z m275 -321 c230 -40 419 -164 542
-352 55 -84 75 -129 106 -238 20 -73 23 -105 22 -210 -3 -132 -16 -201 -62
-304 -35 -80 -100 -180 -154 -235 -49 -51 -132 -120 -143 -120 -5 0 -19 -9
-33 -20 -34 -26 -168 -77 -250 -94 -95 -20 -268 -14 -362 13 -195 57 -347 166
-455 329 -96 145 -130 261 -130 442 0 116 13 200 43 275 125 319 408 519 741
522 47 1 108 -3 135 -8z"/>
<path d="M3935 3346 c-64 -28 -103 -102 -92 -173 7 -45 24 -71 68 -103 l40
-29 227 -1 c124 0 227 -2 229 -3 1 -2 -190 -195 -426 -431 l-428 -428 -54 35
c-144 92 -296 150 -454 174 -64 10 -277 10 -334 1 -314 -53 -586 -226 -756
-480 -95 -140 -153 -288 -183 -463 -11 -65 -7 -316 6 -370 7 -27 14 -59 16
-70 15 -77 129 -328 166 -365 3 -3 24 -30 47 -61 154 -203 422 -358 698 -406
70 -11 284 -10 360 3 234 41 436 145 605 314 166 165 281 388 317 615 14 91 6
375 -11 404 -3 4 -8 22 -11 40 -15 86 -82 241 -152 350 l-34 54 428 428 428
429 5 -234 c5 -217 7 -237 26 -262 39 -53 71 -69 134 -69 63 0 95 16 134 69
21 27 21 38 21 486 0 448 0 459 -21 486 -11 15 -33 37 -48 48 -27 20 -40 21
-474 23 -356 2 -453 0 -477 -11z m-860 -1291 c188 -47 365 -173 472 -337 83
-129 122 -253 128 -408 5 -124 -11 -216 -54 -325 -91 -225 -273 -394 -506
-468 -73 -24 -100 -28 -205 -32 -181 -7 -319 31 -470 130 -231 150 -363 402
-356 683 5 217 84 401 238 553 119 117 241 178 453 222 45 10 235 -1 300 -18z"/>
</g>
</svg>
