<?xml version="1.0" standalone="no"?>
<!DOCTYPE svg PUBLIC "-//W3C//DTD SVG 20010904//EN"
 "http://www.w3.org/TR/2001/REC-SVG-20010904/DTD/svg10.dtd">
<svg version="1.0" xmlns="http://www.w3.org/2000/svg"
 width="640.000000pt" height="640.000000pt" viewBox="0 0 640.000000 640.000000"
 preserveAspectRatio="xMidYMid meet">
<metadata>
Created by potrace 1.14, written by Peter Selinger 2001-2017
</metadata>
<g transform="translate(0.000000,640.000000) scale(0.100000,-0.100000)"
fill="#000000" stroke="none">
<path d="M3315 5270 c-170 -16 -316 -29 -322 -29 -21 -2 -46 -49 -39 -75 3
-13 42 -60 86 -103 44 -44 80 -84 80 -89 0 -10 -332 -344 -341 -344 -4 0 -38
18 -78 39 -231 127 -503 151 -759 65 -57 -19 -133 -51 -169 -71 -563 -314
-669 -1079 -211 -1530 137 -136 255 -203 443 -255 93 -25 282 -34 382 -19 458
71 799 448 820 908 9 191 -23 338 -109 506 -40 76 -40 78 -22 98 11 12 88 91
173 176 l154 154 74 -76 c94 -96 113 -108 145 -96 13 5 29 15 35 23 11 12 63
569 63 670 0 37 -5 50 -22 62 -27 19 0 20 -383 -14z m-950 -915 c279 -71 460
-328 424 -602 -11 -87 -19 -114 -59 -192 -143 -284 -521 -382 -788 -205 -319
211 -334 675 -30 900 137 101 302 137 453 99z"/>
<path d="M4005 3949 c-187 -27 -390 -132 -531 -274 -329 -332 -376 -837 -113
-1226 46 -69 169 -195 240 -246 60 -43 193 -109 252 -124 l47 -13 0 -198 0
-198 -127 0 c-71 0 -138 -3 -149 -6 -36 -9 -44 -46 -44 -193 0 -188 -7 -180
175 -183 l140 -3 7 -74 c9 -107 5 -105 213 -109 191 -5 257 1 280 24 10 11 15
36 15 84 0 53 4 69 16 74 9 3 73 6 143 6 169 0 161 -9 161 188 0 200 7 192
-182 192 l-138 0 0 195 c0 177 2 196 18 202 243 85 408 207 532 394 104 158
149 297 157 490 6 139 -6 234 -43 348 -92 280 -340 526 -619 614 -135 43 -307
57 -450 36z m289 -419 c43 -11 103 -34 135 -52 74 -42 178 -148 218 -223 167
-318 -10 -710 -362 -800 -179 -46 -386 15 -523 154 -268 271 -185 728 161 887
125 56 242 67 371 34z"/>
</g>
</svg>
